<svg xmlns="http://www.w3.org/2000/svg" xmlns:xlink="http://www.w3.org/1999/xlink" x="0px" y="0px" width="48px" height="48px" viewBox="0 0 48 48"><g  transform="translate(0.5, 0.5)"><path data-cap="butt" data-color="color-2" fill="none" stroke="#ffffff" stroke-width="1.5" stroke-miterlimit="10" d="M34,24h8v8c0,2.2-1.8,4-4,4h-4" stroke-linejoin="round" stroke-linecap="round"/>
<path data-cap="butt" data-color="color-2" fill="none" stroke="#ffffff" stroke-width="1.5" stroke-miterlimit="10" d="M34,20.9V43c0,1.7-1.3,3-3,3H9
	c-1.7,0-3-1.3-3-3V20.9" stroke-linejoin="round" stroke-linecap="round"/>
<path fill="none" stroke="#ffffff" stroke-width="1.5" stroke-linecap="round" stroke-miterlimit="10" d="M31,12C31,12,31,12,31,12
	C30.4,6.4,25.7,2,20,2S9.6,6.4,9.1,12c0,0,0,0-0.1,0c-2.9,0-5.3,2.5-5,5.5C4.3,20.1,6.7,22,9.3,22l2.7,0v9c0,1.7,1.3,3,3,3h0
	c1.7,0,3-1.3,3-3v-9l12.7,0c2.6,0,5-1.9,5.3-4.5C36.3,14.5,33.9,12,31,12z" stroke-linejoin="round"/>
<line fill="none" stroke="#ffffff" stroke-width="1.5" stroke-linecap="round" stroke-miterlimit="10" x1="15" y1="39" x2="15" y2="41" stroke-linejoin="round"/>
<line fill="none" stroke="#ffffff" stroke-width="1.5" stroke-linecap="round" stroke-miterlimit="10" x1="25" y1="28" x2="25" y2="41" stroke-linejoin="round"/></g></svg>