<svg xmlns="http://www.w3.org/2000/svg" xmlns:xlink="http://www.w3.org/1999/xlink" x="0px" y="0px" width="48px" height="48px" viewBox="0 0 48 48"><g  transform="translate(0, 0)">
<path data-cap="butt" fill="none" stroke="#ffffff" stroke-width="2" stroke-miterlimit="10" d="M13.3,26l5.9,13.3
	c0.7,1.6,0,3.5-1.6,4.2l0,0c-1.6,0.7-3.5,0-4.2-1.6L6.1,25.7" stroke-linejoin="miter" stroke-linecap="butt"/>
<path fill="none" stroke="#ffffff" stroke-width="2" stroke-linecap="square" stroke-miterlimit="10" d="M32,36L16,26H8
	c-3.3,0-6-2.7-6-6v0c0-3.3,2.7-6,6-6h8L32,4V36z" stroke-linejoin="miter"/>
<line data-color="color-2" fill="none" stroke="#ffffff" stroke-width="2" stroke-linecap="square" stroke-miterlimit="10" x1="42" y1="20" x2="46" y2="20" stroke-linejoin="miter"/>
<line data-color="color-2" fill="none" stroke="#ffffff" stroke-width="2" stroke-linecap="square" stroke-miterlimit="10" x1="39.6" y1="11" x2="43.1" y2="9" stroke-linejoin="miter"/>
<line data-color="color-2" fill="none" stroke="#ffffff" stroke-width="2" stroke-linecap="square" stroke-miterlimit="10" x1="39.6" y1="29" x2="43.1" y2="31" stroke-linejoin="miter"/>
<line fill="none" stroke="#ffffff" stroke-width="2" stroke-linecap="square" stroke-miterlimit="10" x1="10" y1="14" x2="10" y2="26" stroke-linejoin="miter"/>
</g></svg>