<svg xmlns="http://www.w3.org/2000/svg" xmlns:xlink="http://www.w3.org/1999/xlink" x="0px" y="0px" width="48px" height="48px" viewBox="0 0 48 48"><g  transform="translate(0.5, 0.5)">
<path data-color="color-2" fill="none" stroke="#ffffff" stroke-width="1.5" stroke-linecap="round" stroke-miterlimit="10" d="M36,24
	c0-2.2-1.8-4-4-4s-4,1.8-4,4" stroke-linejoin="round"/>
<path data-color="color-2" fill="none" stroke="#ffffff" stroke-width="1.5" stroke-linecap="round" stroke-miterlimit="10" d="M20,24
	c0-2.2-1.8-4-4-4s-4,1.8-4,4" stroke-linejoin="round"/>
<path data-color="color-2" fill="none" stroke="#ffffff" stroke-width="1.5" stroke-linecap="round" stroke-miterlimit="10" d="M32,34
	c0,2.2-1.8,4-4,4s-4-1.8-4-4c0,2.2-1.8,4-4,4s-4-1.8-4-4" stroke-linejoin="round"/>
<path fill="none" stroke="#ffffff" stroke-width="1.5" stroke-linecap="round" stroke-miterlimit="10" d="M30,10h4
	c6.6,0,12,5.4,12,12v12c0,6.6-5.4,12-12,12H14C7.4,46,2,40.6,2,34V22c0-6.6,5.4-12,12-12h4l12-6L30,10z" stroke-linejoin="round"/>
</g></svg>